<svg id="eHlrbD3i2CY1" xmlns="http://www.w3.org/2000/svg" xmlns:xlink="http://www.w3.org/1999/xlink" viewBox="0 0 790 474" shape-rendering="geometricPrecision" text-rendering="geometricPrecision" style="background-color:transparent"><g><g><g><path d="M704.679621,378.779352c-85.295393,62.139257-209.106257,95.208415-314.828884,95.208415-142.640714.926546-280.473547-50.811438-386.402168-145.042868-7.952587-7.075261-18.313842-11.381943,8.732253-11.381943C64.540003,409.006637,262.737801,418.703853,398.11519,418.616153c101.098752-.535719-306.753089-72.055027-213.601886-110.815135c14.345844-5.998591,534.356227,60.673062,520.166317,70.978334Z" transform="translate(38.839538-176.295392)" fill="#28288e" fill-rule="evenodd"/><path d="M747.518935,331.89674c-11.815831-15.395023-76.719206-22.509291-106.427581-18.917119c0-48.122777-350.75331-26.981932-342.651026-32.79783c52.833645-37.632277,478.449387,8.608885,488.408445,21.267015s-7.845173,22.100237-57.302867,64.179965c-7.595891,6.500121-134.985544,18.0469-131.609593,9.494109c11.14064-28.395264,161.398453-27.831117,149.582622-43.22614Z" transform="translate(-160.536754-72.500467)" fill="#e8e6e7" fill-rule="evenodd"/></g></g></g></svg>
