<svg width="36" height="36" viewBox="0 0 36 36" fill="none" xmlns="http://www.w3.org/2000/svg">
<circle cx="18" cy="18" r="18" fill="#0F1B2A"/>
<path fill-rule="evenodd" clip-rule="evenodd" d="M13.5534 9C12.5674 9 11.7284 9.7187 11.5771 10.6931L11.2153 13.0232C11.1459 13.008 11.0739 13 11 13H8C7.44772 13 7 13.4477 7 14C7 14.5523 7.44772 15 8 15H9.50447C8.53959 15.4987 7.88004 16.5057 7.88004 17.6667V20.1667C7.88004 21.3814 8.6019 22.4274 9.64001 22.8993V25.0001C9.64001 25.5523 10.0877 26.0001 10.64 26.0001H12.16C12.7123 26.0001 13.16 25.5523 13.16 25.0001V23.1667H22.8401V25.0001C22.8401 25.5523 23.2878 26.0001 23.8401 26.0001H25.3601C25.9123 26.0001 26.3601 25.5523 26.3601 25.0001V22.8993C27.3982 22.4274 28.12 21.3814 28.12 20.1667V17.6667C28.12 16.5057 27.4605 15.4987 26.4956 15H28C28.5523 15 29 14.5523 29 14C29 13.4477 28.5523 13 28 13H25C24.9261 13 24.8541 13.008 24.7848 13.0232L24.423 10.6931C24.2717 9.7187 23.4327 9 22.4467 9H13.5534ZM22 17C22 16.4477 22.4477 16 23 16H25C25.5523 16 26 16.4477 26 17C26 17.5523 25.5523 18 25 18H23C22.4477 18 22 17.5523 22 17ZM11 16C10.4477 16 10 16.4477 10 17C10 17.5523 10.4477 18 11 18H13C13.5523 18 14 17.5523 14 17C14 16.4477 13.5523 16 13 16H11Z" fill="white"/>
</svg>
